<svg width="49.000000" height="21.000000" viewBox="0 0 49 21" fill="none" xmlns="http://www.w3.org/2000/svg" xmlns:xlink="http://www.w3.org/1999/xlink">
	<desc>
			Created with Pixso.
	</desc>
	<defs/>
	<g opacity="0.200000">
		<path id="24" d="M0.65 5.3Q0.1 6.46 0 7.84L6.19 7.84C6.27 7.2 6.5 6.62 6.88 6.11Q7.45 5.31 8.6 4.85Q9.74 4.35 11.55 4.35Q12.99 4.35 13.98 4.71C14.64 4.95 15.14 5.28 15.46 5.7C15.8 6.1 15.97 6.58 15.97 7.15Q15.97 7.31 15.94 7.47Q15.85 8.06 15.43 8.6C15.09 9.06 14.49 9.56 13.65 10.11C12.83 10.64 11.67 11.3 10.16 12.09L0.48 17.05L0.48 21L22.8 21L22.8 16.5L10.1 16.5L13.11 15.13Q16.33 13.7 18.31 12.41Q20.3 11.1 21.23 9.75C21.85 8.84 22.16 7.86 22.16 6.82C22.16 5.47 21.73 4.28 20.87 3.26Q19.58 1.72 17.23 0.87Q14.91 0 11.79 0Q8.51 0 5.89 0.95Q3.3 1.89 1.74 3.67Q1.07 4.42 0.65 5.3ZM10.1 16.5L6.67 16.5L6.91 17.95L10.1 16.5ZM45.39 12.96L45.39 0.43L37.5 0.43L24.81 13.15L24.81 17.16L39.22 17.16L39.22 21L45.39 21L45.39 17.16L49 17.16L49 12.96L45.39 12.96ZM39.22 12.96L39.22 4.84L41.11 2.93L39.22 2.93L39.22 4.84L31.15 12.96L29.35 12.96L29.38 14.74L31.15 12.96L39.22 12.96ZM39.22 12.96L39.22 17.16L45.39 17.16L45.39 12.96L39.22 12.96Z" fill="#FFFFFF" fill-opacity="1.000000" fill-rule="evenodd"/>
	</g>
</svg>
