<svg width="21.000000" height="21.000000" viewBox="0 0 21 21" fill="none" xmlns="http://www.w3.org/2000/svg" xmlns:xlink="http://www.w3.org/1999/xlink">
	<desc>
			Created with Pixso.
	</desc>
	<defs/>
	<g opacity="0.200000">
		<path id="8" d="M10.5 0C13.7 0 16.15 0.51 17.85 1.53C19.55 2.53 20.4 3.93 20.4 5.74C20.4 7.35 19.66 8.57 18.19 9.39C16.72 10.22 14.66 10.58 12.03 10.47L12.03 9.93C14.85 9.72 17.05 10.04 18.63 10.9C20.21 11.76 21 13.12 21 14.98C21 16.93 20.09 18.43 18.29 19.46C16.51 20.48 13.91 21 10.5 21C7.1 21 4.5 20.48 2.7 19.46C0.9 18.43 0 16.93 0 14.98C0 13.12 0.78 11.76 2.36 10.9C3.95 10.02 6.16 9.7 8.99 9.93L8.99 10.47C6.35 10.58 4.29 10.22 2.8 9.39C1.33 8.57 0.59 7.35 0.59 5.74C0.59 3.93 1.44 2.53 3.14 1.53C4.84 0.51 7.29 0 10.5 0ZM10.5 16.75C12.14 16.75 13.39 16.56 14.24 16.19C15.1 15.79 15.54 15.23 15.54 14.5C15.54 13.74 15.1 13.18 14.24 12.8C13.39 12.43 12.14 12.24 10.5 12.24C8.85 12.24 7.59 12.43 6.73 12.8C5.88 13.18 5.45 13.74 5.45 14.5C5.45 15.23 5.88 15.79 6.73 16.19C7.59 16.56 8.85 16.75 10.5 16.75ZM10.5 8.4C11.48 8.4 12.31 8.33 12.96 8.19C13.64 8.02 14.15 7.79 14.5 7.49C14.86 7.17 15.04 6.77 15.04 6.31C15.04 5.64 14.65 5.13 13.87 4.78C13.09 4.42 11.97 4.24 10.5 4.24C9.04 4.24 7.92 4.42 7.14 4.78C6.36 5.13 5.97 5.64 5.97 6.31C5.97 6.77 6.15 7.17 6.49 7.49C6.84 7.79 7.35 8.02 8.03 8.19C8.7 8.33 9.52 8.4 10.5 8.4Z" fill="#FFFFFF" fill-opacity="1.000000" fill-rule="evenodd"/>
	</g>
</svg>
