<svg width="29.000000" height="20.000000" viewBox="0 0 29 20" fill="none" xmlns="http://www.w3.org/2000/svg" xmlns:xlink="http://www.w3.org/1999/xlink">
	<desc>
			Created with Pixso.
	</desc>
	<defs/>
	<g opacity="0.200000">
		<path id="Vector" d="M28.51 8C28.33 7.68 26.54 6.88 26.54 6.88C26.85 6.72 27.07 6.68 27.07 6C27.07 5.25 27.06 5 26.58 5L24.94 5C24.93 4.98 24.92 4.96 24.92 4.95C23.86 2.56 23.72 1.95 22.14 1.14C20.02 0.05 16.05 0 14.5 0C12.94 0 8.97 0.05 6.85 1.14C5.27 1.95 5.31 2.37 4.07 4.95C4.07 4.96 4.06 4.97 4.05 5L2.41 5C1.93 5 1.92 5.25 1.92 6C1.92 6.68 2.14 6.72 2.45 6.88C2.45 6.88 0.72 7.75 0.48 8C0.24 8.25 0 10 0 13C0 16 0.24 19 0.24 19L0.96 19C0.96 19.87 1.08 20 1.45 20L6.28 20C6.64 20 6.76 19.87 6.76 19L22.23 19C22.23 19.87 22.35 20 22.71 20L27.67 20C27.91 20 28.03 19.81 28.03 19L28.75 19C28.75 19 29 15.93 29 13C29 10.06 28.69 8.31 28.51 8ZM6.6 10.8C5.5 10.93 4.39 10.99 3.28 11C2.05 11 2.01 11.08 1.92 10.28C1.89 9.92 1.9 9.55 1.95 9.19L1.99 9L2.17 9C2.89 9 3.58 9.03 4.86 9.42C5.52 9.62 6.13 9.94 6.68 10.36C6.94 10.56 7 10.75 7 10.75L6.6 10.8ZM21.53 15.3L21.26 16L7.73 16C7.73 16 7.75 15.96 7.43 15.3C7.18 14.81 7.49 14.5 7.96 14.32C8.89 13.97 11.6 13 14.5 13C17.39 13 20.15 13.84 21.05 14.32C21.38 14.5 21.8 14.62 21.53 15.31L21.53 15.3ZM6 6.77C5.81 6.78 5.61 6.78 5.42 6.78C5.57 6.48 5.66 6.16 5.81 5.82C6.3 4.76 6.85 3.56 7.84 3.05C9.26 2.32 12.21 1.99 14.5 1.99C16.78 1.99 19.73 2.32 21.15 3.05C22.14 3.56 22.69 4.76 23.18 5.82C23.33 6.16 23.42 6.49 23.58 6.78C23.46 6.79 23.32 6.78 22.99 6.77L6 6.77ZM27.01 10.28C26.88 11.06 27 11 25.71 11C24.6 10.99 23.49 10.93 22.39 10.8C22.22 10.77 22.17 10.47 22.31 10.36C22.86 9.94 23.47 9.62 24.13 9.42C25.41 9.03 26.14 8.97 26.85 9C26.9 9 26.95 9.02 26.98 9.06C27.02 9.09 27.04 9.14 27.04 9.19C27.07 9.55 27.06 9.92 27.01 10.28L27.01 10.28Z" fill="#FFFFFF" fill-opacity="1.000000" fill-rule="evenodd"/>
	</g>
</svg>
