<svg width="112.000000" height="112.000000" viewBox="0 0 112 112" fill="none" xmlns="http://www.w3.org/2000/svg" xmlns:xlink="http://www.w3.org/1999/xlink">
	<desc>
			Created with Pixso.
	</desc>
	<defs/>
	<rect id="Rectangle 37" rx="20.000000" width="112.000000" height="112.000000" fill="#FFFFFF" fill-opacity="1.000000"/>
	<path id="Vector" d="M31.46 40.21L33.6 40.21L33.6 71.78L31.46 71.78L31.46 40.21ZM35.73 40.21L37.86 40.21L37.86 71.78L35.73 71.78L35.73 40.21ZM40 40.21L42.13 40.21L42.13 71.78L40 71.78L40 40.21ZM44.26 40.21L46.39 40.21L46.39 71.78L44.26 71.78L44.26 40.21ZM48.53 40.21L50.66 40.21L50.66 71.78L48.53 71.78L48.53 40.21ZM52.79 40.21L54.93 40.21L54.93 71.78L52.79 71.78L52.79 40.21ZM57.06 40.21L59.2 40.21L59.2 71.78L57.06 71.78L57.06 40.21ZM61.33 40.21L63.46 40.21L63.46 71.78L61.33 71.78L61.33 40.21ZM65.6 40.21L67.73 40.21L67.73 71.78L65.6 71.78L65.6 40.21ZM69.86 40.21L72 40.21L72 71.78L69.86 71.78L69.86 40.21ZM74.13 40.21L76.26 40.21L76.26 71.78L74.13 71.78L74.13 40.21ZM78.39 40.21L80.53 40.21L80.53 71.78L78.39 71.78L78.39 40.21ZM24 37.05L24 41.26L26.13 41.26L26.13 38.1L29.33 38.1L29.33 36L25.06 36C24.78 36 24.51 36.11 24.31 36.3C24.11 36.5 24 36.77 24 37.05ZM86.93 36L82.66 36L82.66 38.1L85.86 38.1L85.86 41.26L88 41.26L88 37.05C88 36.77 87.88 36.5 87.68 36.3C87.48 36.11 87.21 36 86.93 36ZM26.13 70.73L24 70.73L24 74.94C24 75.22 24.11 75.49 24.31 75.69C24.51 75.88 24.78 76 25.06 76L29.33 76L29.33 73.89L26.13 73.89L26.13 70.73ZM85.86 73.89L82.66 73.89L82.66 76L86.93 76C87.21 76 87.48 75.88 87.68 75.69C87.88 75.49 88 75.22 88 74.94L88 70.73L85.86 70.73L85.86 73.89Z" fill="#1F1F1F" fill-opacity="1.000000" fill-rule="evenodd"/>
</svg>
