<svg width="112.000000" height="112.000000" viewBox="0 0 112 112" fill="none" xmlns="http://www.w3.org/2000/svg" xmlns:xlink="http://www.w3.org/1999/xlink">
	<desc>
			Created with Pixso.
	</desc>
	<defs/>
	<rect id="Rectangle 37" rx="20.000000" width="112.000000" height="112.000000" fill="#FFFFFF" fill-opacity="1.000000"/>
	<path id="Vector" d="M69.5 30L40.7 30C39.98 30 39.29 30.27 38.79 30.76C38.28 31.25 38 31.91 38 32.59L38 50.8L34.39 50.8C34.28 50.79 34.17 50.81 34.06 50.86L29.56 52.59C29.39 52.65 29.25 52.76 29.15 52.91C29.05 53.05 29 53.22 29 53.4L29 65.53C29 65.67 29.03 65.81 29.1 65.94C29.17 66.06 29.28 66.17 29.4 66.25L32.11 67.98C32.25 68.08 32.43 68.13 32.6 68.13L38 68.13L38 79.39C38 80.08 38.28 80.74 38.79 81.23C39.29 81.72 39.98 81.99 40.7 82L69.5 82C70.21 81.99 70.9 81.72 71.4 81.23C71.91 80.74 72.19 80.08 72.2 79.39L72.2 32.59C72.19 31.91 71.91 31.25 71.4 30.76C70.9 30.27 70.21 30 69.5 30ZM70.39 79.39C70.39 79.62 70.3 79.85 70.13 80.01C69.96 80.17 69.73 80.26 69.5 80.26L40.7 80.26C40.46 80.26 40.23 80.17 40.06 80.01C39.89 79.85 39.79 79.62 39.79 79.39L39.79 57.73L45.2 57.73C46.15 57.73 47.07 57.36 47.74 56.71C48.42 56.06 48.79 55.18 48.79 54.26C48.79 53.34 48.42 52.46 47.74 51.81C47.07 51.16 46.15 50.8 45.2 50.8L39.79 50.8L39.79 32.59C39.79 32.37 39.89 32.14 40.06 31.98C40.23 31.82 40.46 31.73 40.7 31.73L69.5 31.73C69.73 31.73 69.96 31.82 70.13 31.98C70.3 32.14 70.39 32.37 70.39 32.59L70.39 79.39ZM55.46 33.54L63.56 37.01C63.72 37.07 63.86 37.18 63.95 37.32C64.05 37.46 64.1 37.63 64.1 37.8L64.1 43.35C64.1 44.45 63.85 45.54 63.38 46.54C62.92 47.55 62.23 48.44 61.38 49.17L55.69 54.05C55.52 54.18 55.31 54.26 55.1 54.26C54.88 54.26 54.67 54.18 54.5 54.05L48.81 49.17C47.96 48.44 47.27 47.55 46.81 46.54C46.34 45.54 46.09 44.45 46.1 43.35L46.1 37.8C46.09 37.63 46.14 37.46 46.24 37.32C46.33 37.18 46.47 37.07 46.63 37.01L54.73 33.54C54.84 33.49 54.97 33.46 55.1 33.46C55.22 33.46 55.35 33.49 55.46 33.54ZM61.74 45.83C62.1 45.05 62.29 44.21 62.29 43.35L62.29 38.36L55.1 35.27L47.89 38.36L47.89 43.35C47.9 44.21 48.08 45.05 48.45 45.83C48.81 46.62 49.35 47.31 50.01 47.88L55.1 52.23L60.18 47.88C60.84 47.31 61.38 46.62 61.74 45.83ZM55.1 45.6C55.33 45.6 55.56 45.5 55.73 45.34L60.82 40.44L59.55 39.21L55.1 43.5L53.19 41.66L51.91 42.89L54.46 45.34C54.63 45.5 54.86 45.6 55.1 45.6ZM79.39 47.33L82.1 47.33C82.33 47.33 82.56 47.42 82.73 47.58C82.9 47.74 83 47.97 83 48.2L83 56.86L81.2 56.86L81.2 49.06L79.39 49.06L79.39 74.19C79.39 74.26 79.39 74.34 79.37 74.4L77.57 81.34C77.52 81.52 77.41 81.69 77.25 81.81C77.09 81.93 76.9 81.99 76.7 81.99C76.49 81.99 76.3 81.93 76.14 81.81C75.98 81.69 75.87 81.52 75.82 81.34L74.02 74.4C74 74.34 74 74.26 74 74.19L74 44.73C74 44.04 74.28 43.38 74.79 42.89C75.29 42.4 75.98 42.13 76.7 42.13C77.41 42.13 78.1 42.4 78.6 42.89C79.11 43.38 79.39 44.04 79.39 44.73L79.39 47.33ZM75.79 47.33L77.6 47.33L77.6 44.73C77.6 44.5 77.5 44.28 77.33 44.12C77.16 43.95 76.93 43.86 76.7 43.86C76.46 43.86 76.23 43.95 76.06 44.12C75.89 44.28 75.79 44.5 75.79 44.73L75.79 47.33ZM75.79 73.33L77.6 73.33L77.6 49.06L75.79 49.06L75.79 73.33ZM37.91 57.73L38 57.73L38 66.39L32.87 66.39L30.79 65.06L30.79 53.98L34.57 52.53L45.2 52.53C45.67 52.53 46.13 52.71 46.47 53.04C46.81 53.36 47 53.8 47 54.26C47 54.72 46.81 55.16 46.47 55.49C46.13 55.81 45.67 56 45.2 56L37.1 56C36.86 56 36.63 56.09 36.46 56.25C36.29 56.41 36.2 56.63 36.2 56.86C36.19 57.55 35.91 58.21 35.4 58.7C34.9 59.18 34.21 59.46 33.5 59.46L33.5 61.2C34.53 61.19 35.54 60.85 36.34 60.22C37.14 59.59 37.7 58.71 37.91 57.73ZM47 62.93L47 61.2L43.39 61.2L43.39 62.93L47 62.93ZM66.79 61.2L48.79 61.2L48.79 62.93L66.79 62.93L66.79 61.2ZM47 68.13L47 66.39L43.39 66.39L43.39 68.13L47 68.13ZM66.79 66.39L48.79 66.39L48.79 68.13L66.79 68.13L66.79 66.39ZM47 73.33L47 71.6L43.39 71.6L43.39 73.33L47 73.33ZM66.79 71.6L48.79 71.6L48.79 73.33L66.79 73.33L66.79 71.6ZM76.05 75.06L76.7 77.56L77.34 75.06L76.05 75.06ZM47 78.53L47 76.8L43.39 76.8L43.39 78.53L47 78.53ZM66.79 76.8L48.79 76.8L48.79 78.53L66.79 78.53L66.79 76.8Z" fill="#1F1F1F" fill-opacity="1.000000" fill-rule="evenodd"/>
</svg>
