<svg width="112.000000" height="112.000000" viewBox="0 0 112 112" fill="none" xmlns="http://www.w3.org/2000/svg" xmlns:xlink="http://www.w3.org/1999/xlink">
	<desc>
			Created with Pixso.
	</desc>
	<defs/>
	<rect id="Rectangle 37" rx="20.000000" width="112.000000" height="112.000000" fill="#FFFFFF" fill-opacity="1.000000"/>
	<path id="Vector" d="M67.66 56L29.89 56C29.66 56 29.43 55.9 29.26 55.73C29.09 55.56 29 55.33 29 55.1L29 35.3C29 35.06 29.09 34.83 29.26 34.66C29.43 34.49 29.66 34.39 29.89 34.39L52.9 34.39L56.24 31.06C56.4 30.89 56.63 30.8 56.87 30.8L75.75 30.8L75.75 29.89C75.75 29.66 75.85 29.43 76.02 29.26C76.19 29.09 76.41 29 76.65 29L82.05 29C82.29 29 82.52 29.09 82.68 29.26C82.85 29.43 82.95 29.66 82.95 29.89L82.95 49.7C82.95 49.93 82.85 50.16 82.68 50.33C82.52 50.5 82.29 50.6 82.05 50.6L76.65 50.6C76.41 50.6 76.19 50.5 76.02 50.33C75.85 50.16 75.75 49.93 75.75 49.7L75.75 47.42L73.16 48.46C72.52 48.72 71.8 48.72 71.16 48.46L68.56 47.42L68.56 55.1C68.56 55.33 68.47 55.56 68.3 55.73C68.13 55.9 67.9 56 67.66 56ZM81.15 30.8L77.55 30.8L77.55 48.8L81.15 48.8L81.15 30.8ZM75.75 32.6L57.24 32.6L55.44 34.39L67.66 34.39C67.9 34.39 68.13 34.49 68.3 34.66C68.47 34.83 68.56 35.06 68.56 35.3L68.56 39.8L71.26 39.8L71.26 41.6L59.57 41.6C59.09 41.6 58.63 41.78 58.3 42.12C57.96 42.46 57.77 42.92 57.77 43.39C57.77 43.87 57.96 44.33 58.3 44.67C58.63 45.01 59.09 45.2 59.57 45.2L67.66 45.2C67.78 45.2 67.89 45.22 68 45.26L71.82 46.79C72.04 46.88 72.28 46.88 72.49 46.79L75.75 45.49L75.75 32.6ZM66.76 36.2L30.79 36.2L30.79 54.2L66.76 54.2L66.76 47L59.57 47C58.61 47 57.7 46.62 57.03 45.94C56.35 45.27 55.97 44.35 55.97 43.39C55.97 42.44 56.35 41.52 57.03 40.85C57.7 40.17 58.61 39.8 59.57 39.8L66.76 39.8L66.76 36.2ZM32.59 42.5L32.59 38.89C32.59 38.66 32.69 38.43 32.86 38.26C33.02 38.09 33.25 38 33.49 38L37.09 38L37.09 39.8L34.39 39.8L34.39 42.5L32.59 42.5ZM44.78 39.21C45.96 38.42 47.35 38 48.78 38C50.68 38 52.51 38.76 53.86 40.11C55.21 41.46 55.97 43.29 55.97 45.2C55.97 46.62 55.55 48.01 54.76 49.2C53.97 50.38 52.85 51.3 51.53 51.85C50.22 52.39 48.77 52.53 47.37 52.26C45.98 51.98 44.7 51.29 43.69 50.29C42.68 49.28 42 48 41.72 46.6C41.44 45.2 41.59 43.76 42.13 42.44C42.68 41.12 43.6 40 44.78 39.21ZM45.78 49.68C46.67 50.28 47.71 50.6 48.78 50.6C50.21 50.59 51.58 50.02 52.59 49.01C53.6 48 54.17 46.63 54.17 45.2C54.17 44.13 53.86 43.08 53.26 42.2C52.67 41.31 51.83 40.61 50.84 40.21C49.86 39.8 48.77 39.69 47.73 39.9C46.68 40.11 45.72 40.62 44.96 41.38C44.21 42.13 43.69 43.09 43.49 44.14C43.28 45.19 43.38 46.27 43.79 47.26C44.2 48.25 44.89 49.09 45.78 49.68ZM32.59 51.5L32.59 47.89L34.39 47.89L34.39 50.6L37.09 50.6L37.09 52.39L33.49 52.39C33.25 52.39 33.02 52.3 32.86 52.13C32.69 51.96 32.59 51.73 32.59 51.5ZM60.47 50.6L63.17 50.6L63.17 47.89L64.96 47.89L64.96 51.5C64.96 51.73 64.87 51.96 64.7 52.13C64.53 52.3 64.3 52.39 64.06 52.39L60.47 52.39L60.47 50.6ZM80.35 57.84C81.26 58.09 82.04 58.68 82.52 59.51C82.99 60.33 83.12 61.31 82.87 62.23C82.63 63.15 82.03 63.94 81.22 64.42L53.5 80.58C52.82 80.98 52.04 81.19 51.24 81.19L38.89 81.19C38.81 81.19 38.74 81.19 38.67 81.17L36.16 80.55C36.1 81.22 35.79 81.84 35.3 82.29C34.81 82.74 34.16 82.99 33.49 83L31.69 83C30.98 83 30.29 82.71 29.79 82.2C29.28 81.7 29 81.01 29 80.3L29 64.1C29 63.38 29.28 62.69 29.79 62.19C30.29 61.68 30.98 61.39 31.69 61.39L33.49 61.39C34.16 61.4 34.81 61.65 35.3 62.1C35.8 62.56 36.1 63.18 36.16 63.85L38.68 63.22C38.75 63.2 38.82 63.2 38.9 63.2L56.87 63.2C58.06 63.2 59.2 63.67 60.04 64.51C60.88 65.35 61.36 66.49 61.37 67.68L77.63 58.19C78.45 57.72 79.43 57.59 80.35 57.84ZM52.6 79.03L80.31 62.87C80.72 62.62 81.02 62.23 81.14 61.77C81.26 61.31 81.19 60.82 80.96 60.4C80.84 60.2 80.69 60.02 80.5 59.88C80.32 59.73 80.11 59.63 79.88 59.57C79.66 59.5 79.42 59.49 79.19 59.52C78.96 59.55 78.73 59.63 78.53 59.75L60.6 70.21C60.19 70.82 59.64 71.33 58.98 71.67C58.33 72.02 57.61 72.2 56.87 72.19L47.88 72.19L47.88 70.39L56.87 70.39C57.59 70.39 58.28 70.11 58.78 69.6C58.94 69.44 59.07 69.27 59.18 69.08C59.43 68.67 59.56 68.2 59.57 67.72C59.57 67.24 59.45 66.77 59.22 66.36C58.98 65.94 58.64 65.6 58.23 65.36C57.82 65.12 57.35 64.99 56.87 65L39.01 65L36.19 65.7L36.19 78.7L39 79.39L51.24 79.39C51.72 79.39 52.19 79.27 52.6 79.03ZM34.13 80.93C34.3 80.76 34.39 80.53 34.39 80.3L34.39 64.1C34.39 63.86 34.3 63.63 34.13 63.46C33.96 63.29 33.73 63.2 33.49 63.2L31.69 63.2C31.45 63.2 31.23 63.29 31.06 63.46C30.89 63.63 30.79 63.86 30.79 64.1L30.79 80.3C30.79 80.53 30.89 80.76 31.06 80.93C31.23 81.1 31.45 81.19 31.69 81.19L33.49 81.19C33.73 81.19 33.96 81.1 34.13 80.93Z" fill="#1F1F1F" fill-opacity="1.000000" fill-rule="evenodd"/>
</svg>
