<svg width="112.000000" height="112.000000" viewBox="0 0 112 112" fill="none" xmlns="http://www.w3.org/2000/svg" xmlns:xlink="http://www.w3.org/1999/xlink">
	<desc>
			Created with Pixso.
	</desc>
	<defs/>
	<rect id="Rectangle 37" rx="20.000000" width="112.000000" height="112.000000" fill="#FFFFFF" fill-opacity="1.000000"/>
	<path id="Vector" d="M40.99 33.55C45.43 30.58 50.65 29 56 29C63.15 29 70.02 31.85 75.08 36.91C80.14 41.97 82.99 48.84 83 56C83 61.34 81.41 66.56 78.44 71C75.48 75.44 71.26 78.9 66.33 80.94C61.39 82.98 55.97 83.52 50.73 82.48C45.49 81.43 40.68 78.86 36.9 75.09C33.13 71.31 30.56 66.5 29.51 61.26C28.47 56.03 29.01 50.6 31.05 45.66C33.09 40.73 36.55 36.51 40.99 33.55ZM45.09 35.3C48.18 33.67 51.6 32.75 55.1 32.62L55.1 30.82C51.28 30.95 47.55 31.95 44.19 33.74L45.09 35.3ZM56.89 30.82L56.89 32.62C60.39 32.75 63.81 33.67 66.9 35.3L67.8 33.74C64.44 31.95 60.71 30.95 56.89 30.82ZM65.17 36.44C62.3 35.09 59.16 34.39 56 34.39C52.83 34.39 49.69 35.09 46.82 36.44C43.96 37.79 41.42 39.75 39.39 42.19L52.33 48.78C53.47 48.2 54.72 47.89 56 47.89C57.27 47.89 58.52 48.2 59.66 48.78L72.6 42.19C70.57 39.75 68.04 37.79 65.17 36.44ZM43.53 36.21L42.63 34.65C39.4 36.67 36.67 39.4 34.65 42.63L36.21 43.53C38.07 40.58 40.58 38.07 43.53 36.21ZM75.78 43.53L77.34 42.63C75.32 39.4 72.59 36.67 69.36 34.65L68.46 36.21C71.41 38.07 73.92 40.58 75.78 43.53ZM50.64 49.94L38.29 43.65C37.58 44.66 36.95 45.74 36.43 46.86L47.96 55.05C48.19 53.07 49.14 51.25 50.64 49.94ZM64.03 55.05L75.56 46.86C75.04 45.74 74.41 44.66 73.7 43.65L61.35 49.94C62.85 51.25 63.8 53.07 64.03 55.05ZM30.82 55.1L32.62 55.1C32.75 51.6 33.67 48.18 35.3 45.09L33.74 44.19C31.95 47.55 30.95 51.28 30.82 55.1ZM76.69 45.09C78.32 48.18 79.24 51.6 79.37 55.1L81.17 55.1C81.04 51.28 80.04 47.55 78.25 44.19L76.69 45.09ZM35.71 48.56C34.84 50.94 34.39 53.46 34.39 56C34.4 61.08 36.2 65.99 39.47 69.88C42.74 73.77 47.28 76.39 52.28 77.27L50.72 62.13C49.27 60.88 48.31 59.17 48.01 57.29L35.71 48.56ZM61.27 62.13L59.71 77.27L59.71 77.27C62.82 76.73 65.78 75.51 68.37 73.7C70.96 71.88 73.12 69.53 74.7 66.79C76.28 64.05 77.24 61 77.52 57.85C77.79 54.7 77.36 51.53 76.28 48.56L63.98 57.29C63.68 59.17 62.72 60.88 61.27 62.13ZM52.5 61.23C53.53 61.93 54.75 62.3 56 62.3C57.67 62.29 59.27 61.63 60.45 60.45C61.63 59.27 62.29 57.67 62.29 56C62.29 54.75 61.93 53.53 61.23 52.5C60.54 51.46 59.56 50.65 58.41 50.17C57.25 49.7 55.99 49.57 54.77 49.82C53.54 50.06 52.42 50.66 51.54 51.54C50.66 52.42 50.06 53.54 49.82 54.77C49.57 55.99 49.7 57.25 50.17 58.41C50.65 59.56 51.46 60.54 52.5 61.23ZM54.5 53.75C54.94 53.45 55.46 53.3 56 53.3C56.71 53.3 57.4 53.58 57.9 54.09C58.41 54.59 58.7 55.28 58.7 56C58.7 56.53 58.54 57.05 58.24 57.5C57.94 57.94 57.52 58.29 57.03 58.49C56.54 58.69 55.99 58.75 55.47 58.64C54.94 58.54 54.46 58.28 54.09 57.9C53.71 57.53 53.45 57.05 53.35 56.52C53.24 56 53.3 55.46 53.5 54.96C53.71 54.47 54.05 54.05 54.5 53.75ZM55.5 56.74C55.64 56.84 55.82 56.89 56 56.89C56.23 56.89 56.46 56.8 56.63 56.63C56.8 56.46 56.89 56.23 56.89 56C56.89 55.82 56.84 55.64 56.74 55.5C56.64 55.35 56.5 55.23 56.34 55.16C56.18 55.1 55.99 55.08 55.82 55.11C55.64 55.15 55.48 55.23 55.36 55.36C55.23 55.48 55.15 55.64 55.11 55.82C55.08 55.99 55.1 56.17 55.16 56.34C55.23 56.5 55.35 56.64 55.5 56.74ZM35.3 66.9C33.67 63.81 32.75 60.39 32.62 56.89L30.82 56.89C30.95 60.71 31.95 64.44 33.74 67.8L35.3 66.9ZM81.17 56.89L79.37 56.89C79.24 60.39 78.32 63.81 76.69 66.9L78.25 67.8C80.04 64.44 81.04 60.71 81.17 56.89ZM54.12 77.51C54.74 77.56 55.37 77.6 56 77.6C56.62 77.6 57.25 77.56 57.87 77.51L59.33 63.37C58.29 63.85 57.15 64.1 56 64.1C54.84 64.1 53.7 63.85 52.66 63.37L54.12 77.51ZM36.21 68.46L34.65 69.36C36.67 72.59 39.4 75.32 42.63 77.34L43.53 75.78C40.58 73.92 38.07 71.41 36.21 68.46ZM68.46 75.78L69.36 77.34C72.59 75.32 75.32 72.59 77.34 69.36L75.78 68.46C73.92 71.41 71.41 73.92 68.46 75.78ZM55.1 81.17L55.1 79.37C51.6 79.24 48.18 78.32 45.09 76.69L44.19 78.25C47.55 80.04 51.28 81.04 55.1 81.17ZM66.9 76.69C63.81 78.32 60.39 79.24 56.89 79.37L56.89 81.17C60.71 81.04 64.44 80.04 67.8 78.25L66.9 76.69Z" fill="#1F1F1F" fill-opacity="1.000000" fill-rule="evenodd"/>
</svg>
