<svg width="112.000000" height="112.000000" viewBox="0 0 112 112" fill="none" xmlns="http://www.w3.org/2000/svg" xmlns:xlink="http://www.w3.org/1999/xlink">
	<desc>
			Created with Pixso.
	</desc>
	<defs/>
	<rect id="Rectangle 37" rx="20.000000" width="112.000000" height="112.000000" fill="#FFFFFF" fill-opacity="1.000000"/>
	<path id="Vector" d="M77.9 49L85 49C85.26 49 85.51 49.1 85.7 49.29C85.89 49.48 86 49.73 86 50L86 62C86 62.26 85.89 62.51 85.7 62.7C85.51 62.89 85.26 63 85 63L77.9 63C77.51 64.21 77.02 65.4 76.44 66.54L81.45 71.55C81.84 71.94 81.84 72.58 81.45 72.97L72.97 81.45C72.58 81.84 71.94 81.84 71.55 81.45L66.54 76.44C65.4 77.02 64.21 77.51 63 77.9L63 85C63 85.26 62.89 85.51 62.7 85.7C62.51 85.89 62.26 86 62 86L50 86C49.73 86 49.48 85.89 49.29 85.7C49.1 85.51 49 85.26 49 85L49 77.9C47.78 77.51 46.59 77.02 45.45 76.44L40.44 81.45C40.05 81.84 39.41 81.84 39.02 81.45L30.54 72.97C30.15 72.58 30.15 71.94 30.54 71.55L35.55 66.54C34.97 65.4 34.48 64.21 34.09 63L27 63C26.73 63 26.48 62.89 26.29 62.7C26.1 62.51 26 62.26 26 62L26 50C26 49.73 26.1 49.48 26.29 49.29C26.48 49.1 26.73 49 27 49L34.09 49C34.48 47.78 34.97 46.59 35.55 45.45L30.54 40.44C30.15 40.05 30.15 39.41 30.54 39.02L39.02 30.54C39.42 30.16 40.04 30.16 40.44 30.54L45.45 35.55C46.59 34.97 47.78 34.48 49 34.09L49 27C49 26.73 49.1 26.48 49.29 26.29C49.48 26.1 49.73 26 50 26L62 26C62.26 26 62.51 26.1 62.7 26.29C62.89 26.48 63 26.73 63 27L63 34.09C64.21 34.48 65.4 34.97 66.54 35.55L71.55 30.54C71.94 30.15 72.58 30.15 72.97 30.54L81.45 39.02C81.84 39.41 81.84 40.05 81.45 40.44L76.44 45.45C77.02 46.59 77.51 47.78 77.9 49ZM77.16 61L84 61L84 51L77.16 51C76.94 51 76.73 50.92 76.55 50.79C76.38 50.66 76.25 50.48 76.2 50.27C75.75 48.7 75.12 47.19 74.33 45.77C74.22 45.57 74.18 45.35 74.21 45.14C74.24 44.92 74.34 44.72 74.5 44.56L79.33 39.73L72.26 32.66L67.43 37.49C67.28 37.65 67.07 37.75 66.86 37.78C66.64 37.81 66.42 37.77 66.23 37.66C64.81 36.86 63.29 36.24 61.72 35.79C61.51 35.73 61.33 35.61 61.2 35.43C61.07 35.26 61 35.05 61 34.83L61 28L51 28L51 34.83C51 35.05 50.92 35.26 50.79 35.43C50.66 35.61 50.48 35.74 50.27 35.79C48.7 36.24 47.19 36.87 45.77 37.66C45.57 37.77 45.35 37.81 45.14 37.78C44.92 37.75 44.72 37.65 44.56 37.5L39.73 32.66L32.66 39.73L37.49 44.56C37.65 44.71 37.75 44.92 37.78 45.13C37.81 45.35 37.77 45.57 37.66 45.76C36.86 47.18 36.24 48.7 35.79 50.27C35.73 50.48 35.61 50.66 35.43 50.79C35.26 50.92 35.05 51 34.83 51L28 51L28 61L34.83 61C35.05 60.99 35.26 61.07 35.43 61.2C35.61 61.33 35.74 61.51 35.79 61.72C36.24 63.29 36.87 64.8 37.66 66.23C37.77 66.42 37.81 66.64 37.78 66.85C37.75 67.07 37.65 67.27 37.5 67.43L32.66 72.26L39.73 79.33L44.56 74.5C44.71 74.34 44.92 74.24 45.13 74.21C45.35 74.18 45.57 74.22 45.76 74.33C47.18 75.13 48.7 75.75 50.27 76.2C50.48 76.26 50.66 76.38 50.79 76.56C50.92 76.73 51 76.94 51 77.16L51 84L61 84L61 77.16C61 76.94 61.07 76.73 61.2 76.55C61.33 76.38 61.51 76.25 61.72 76.2C63.29 75.75 64.8 75.12 66.23 74.33C66.42 74.22 66.64 74.18 66.85 74.21C67.07 74.24 67.27 74.34 67.43 74.5L72.26 79.33L79.33 72.26L74.5 67.43C74.34 67.28 74.24 67.07 74.21 66.86C74.18 66.64 74.22 66.42 74.33 66.23C75.13 64.81 75.75 63.29 76.2 61.72C76.26 61.51 76.38 61.33 76.56 61.2C76.73 61.07 76.94 61 77.16 61ZM72.37 46.4C70.72 43.6 68.39 41.27 65.59 39.62C65.53 39.58 65.47 39.54 65.4 39.51C59.58 36.16 52.41 36.16 46.59 39.51C46.52 39.54 46.46 39.58 46.4 39.62C43.6 41.27 41.27 43.6 39.62 46.4C39.58 46.46 39.54 46.52 39.51 46.59C36.16 52.41 36.16 59.58 39.51 65.4C39.55 65.49 39.6 65.57 39.66 65.65C41.3 68.42 43.62 70.73 46.4 72.37C46.47 72.42 46.55 72.46 46.62 72.5C52.43 75.83 59.56 75.83 65.37 72.5C65.44 72.46 65.52 72.42 65.59 72.37C68.37 70.73 70.69 68.42 72.33 65.65C72.39 65.57 72.44 65.49 72.48 65.4C75.83 59.58 75.83 52.41 72.48 46.59C72.45 46.52 72.41 46.46 72.37 46.4ZM65.34 70.18L64.36 68.48C64.27 68.33 64.15 68.2 64 68.11C63.84 68.02 63.67 67.98 63.49 67.98C63.32 67.98 63.14 68.02 62.99 68.11C62.84 68.2 62.71 68.32 62.62 68.48C62.54 68.63 62.49 68.8 62.49 68.98C62.49 69.16 62.54 69.33 62.63 69.48L63.6 71.17C61.55 72.21 59.3 72.81 57 72.94L57 71C57 70.73 56.89 70.48 56.7 70.29C56.51 70.1 56.26 70 56 70C55.73 70 55.48 70.1 55.29 70.29C55.1 70.48 55 70.73 55 71L55 72.94C52.69 72.81 50.44 72.21 48.39 71.18L49.36 69.49C49.49 69.26 49.52 68.99 49.45 68.73C49.38 68.48 49.21 68.27 48.98 68.14C48.76 68.01 48.49 67.97 48.24 68.03C47.98 68.1 47.76 68.26 47.63 68.49L46.65 70.18C44.73 68.91 43.08 67.27 41.81 65.34L43.51 64.37C43.66 64.28 43.79 64.15 43.88 64C43.97 63.85 44.01 63.67 44.01 63.5C44.02 63.32 43.97 63.15 43.88 63C43.79 62.84 43.67 62.72 43.51 62.63C43.36 62.54 43.19 62.49 43.01 62.5C42.83 62.5 42.66 62.54 42.51 62.63L40.82 63.61C39.78 61.55 39.18 59.3 39.05 57L41 57C41.26 57 41.51 56.89 41.7 56.7C41.89 56.51 42 56.26 42 56C42 55.73 41.89 55.48 41.7 55.29C41.51 55.1 41.26 55 41 55L39.05 55C39.18 52.69 39.78 50.45 40.81 48.39L42.5 49.36C42.66 49.45 42.83 49.5 43.01 49.5C43.18 49.5 43.36 49.45 43.51 49.37C43.66 49.28 43.79 49.15 43.88 49C43.96 48.85 44.01 48.67 44.01 48.5C44.01 48.32 43.96 48.15 43.87 47.99C43.79 47.84 43.66 47.72 43.5 47.63L41.81 46.65C43.08 44.73 44.72 43.08 46.65 41.81L47.62 43.51C47.71 43.66 47.84 43.79 47.99 43.88C48.14 43.97 48.32 44.01 48.49 44.01C48.67 44.02 48.84 43.97 48.99 43.88C49.15 43.79 49.27 43.67 49.36 43.51C49.45 43.36 49.5 43.19 49.49 43.01C49.49 42.83 49.45 42.66 49.36 42.51L48.38 40.82C50.44 39.78 52.69 39.18 55 39.05L55 41C55 41.26 55.1 41.51 55.29 41.7C55.48 41.89 55.73 42 56 42C56.26 42 56.51 41.89 56.7 41.7C56.89 41.51 57 41.26 57 41L57 39.05C59.3 39.18 61.55 39.78 63.6 40.81L62.63 42.5C62.54 42.66 62.49 42.83 62.49 43.01C62.49 43.18 62.54 43.36 62.62 43.51C62.71 43.66 62.84 43.79 62.99 43.88C63.14 43.97 63.32 44.01 63.49 44.01C63.67 44.01 63.84 43.96 64 43.87C64.15 43.79 64.27 43.66 64.36 43.5L65.34 41.81C67.26 43.08 68.91 44.72 70.18 46.65L68.48 47.62C68.33 47.71 68.2 47.84 68.11 47.99C68.02 48.14 67.98 48.32 67.98 48.49C67.98 48.67 68.02 48.84 68.11 48.99C68.2 49.15 68.32 49.27 68.48 49.36C68.63 49.45 68.8 49.5 68.98 49.49C69.16 49.49 69.33 49.45 69.48 49.36L71.17 48.38C72.21 50.44 72.81 52.69 72.94 55L71 55C70.73 55 70.48 55.1 70.29 55.29C70.1 55.48 70 55.73 70 56C70 56.26 70.1 56.51 70.29 56.7C70.48 56.89 70.73 57 71 57L72.94 57C72.81 59.3 72.21 61.55 71.18 63.6L69.49 62.63C69.26 62.5 68.99 62.47 68.73 62.54C68.48 62.61 68.27 62.78 68.14 63.01C68.01 63.23 67.97 63.5 68.04 63.75C68.1 64.01 68.26 64.23 68.49 64.36L70.18 65.34C68.91 67.26 67.26 68.91 65.34 70.18ZM56 44C55.73 44 55.48 44.1 55.29 44.29C55.1 44.48 55 44.73 55 45L55 55L47 55C46.73 55 46.48 55.1 46.29 55.29C46.1 55.48 46 55.73 46 56C46 56.26 46.1 56.51 46.29 56.7C46.48 56.89 46.73 57 47 57L56 57C56.26 57 56.51 56.89 56.7 56.7C56.89 56.51 57 56.26 57 56L57 45C57 44.73 56.89 44.48 56.7 44.29C56.51 44.1 56.26 44 56 44Z" fill="#1F1F1F" fill-opacity="1.000000" fill-rule="evenodd"/>
</svg>
