<svg width="9.000000" height="11.000000" viewBox="0 0 9 11" fill="none" xmlns="http://www.w3.org/2000/svg" xmlns:xlink="http://www.w3.org/1999/xlink">
	<desc>
			Created with Pixso.
	</desc>
	<defs>
		<linearGradient id="paint_linear_7826_129_0" x1="-0.000000" y1="7.562499" x2="8.999998" y2="2.979166" gradientUnits="userSpaceOnUse">
			<stop stop-color="#9F7437"/>
			<stop offset="1.000000" stop-color="#E3D293"/>
		</linearGradient>
	</defs>
	<path id="Vector" d="M4.5 0C3.3 0 2.16 0.46 1.31 1.29C0.47 2.11 0 3.23 0 4.39C0 6.19 1.32 7.67 2.73 9.25C3.18 9.74 3.64 10.26 4.05 10.78C4.1 10.85 4.17 10.9 4.25 10.94C4.32 10.98 4.41 11 4.5 11C4.58 11 4.67 10.98 4.74 10.94C4.82 10.9 4.89 10.85 4.94 10.78C5.35 10.26 5.81 9.74 6.26 9.25C7.67 7.67 9 6.19 9 4.39C8.99 3.23 8.52 2.11 7.68 1.29C6.83 0.46 5.69 0 4.5 0ZM4.5 6.05C4.16 6.05 3.83 5.95 3.56 5.77C3.28 5.59 3.06 5.33 2.94 5.03C2.81 4.72 2.77 4.39 2.84 4.07C2.91 3.75 3.07 3.46 3.3 3.23C3.54 3 3.84 2.84 4.17 2.78C4.49 2.71 4.83 2.75 5.14 2.87C5.45 3 5.71 3.21 5.9 3.48C6.08 3.75 6.18 4.07 6.18 4.39C6.18 4.83 6 5.25 5.69 5.56C5.37 5.87 4.94 6.05 4.5 6.05Z" fill="url(#paint_linear_7826_129_0)" fill-opacity="1.000000" fill-rule="evenodd"/>
</svg>
