<svg width="11.000000" height="8.000000" viewBox="0 0 11 8" fill="none" xmlns="http://www.w3.org/2000/svg" xmlns:xlink="http://www.w3.org/1999/xlink">
	<desc>
			Created with Pixso.
	</desc>
	<defs>
		<linearGradient id="paint_linear_7826_150_0" x1="-0.000000" y1="5.500000" x2="11.000000" y2="2.166670" gradientUnits="userSpaceOnUse">
			<stop stop-color="#9F7437"/>
			<stop offset="1.000000" stop-color="#E3D293"/>
		</linearGradient>
	</defs>
	<path id="Vector" d="M9.03 0L1.96 0C0.87 0 0 0.89 0 2L0 6C0 7.1 0.87 8 1.96 8L9.03 8C10.12 8 11 7.1 11 6L11 2C11 0.89 10.12 0 9.03 0ZM9.28 6.25C9.2 6.33 9.11 6.37 9 6.37C8.9 6.37 8.8 6.33 8.72 6.25L7.07 4.56L6.33 5.31C6.1 5.55 5.8 5.66 5.5 5.66C5.19 5.66 4.89 5.55 4.66 5.31L3.92 4.56L2.27 6.25C2.19 6.33 2.09 6.37 1.99 6.37C1.88 6.37 1.79 6.33 1.71 6.25C1.55 6.1 1.55 5.84 1.71 5.68L3.37 4L1.96 2.56C1.8 2.4 1.8 2.15 1.96 1.99C2.11 1.83 2.36 1.83 2.51 1.99L5.22 4.75C5.37 4.9 5.62 4.9 5.77 4.75L8.48 1.99C8.63 1.83 8.88 1.83 9.03 1.99C9.19 2.15 9.19 2.4 9.03 2.56L7.62 4L9.28 5.68C9.44 5.84 9.44 6.1 9.28 6.25Z" fill="url(#paint_linear_7826_150_0)" fill-opacity="1.000000" fill-rule="evenodd"/>
</svg>
